ffmpeg version 4.4.2-0ubuntu0.22.04.1 Copyright (c) 2000-2021 the FFmpeg developers
  built with gcc 11 (Ubuntu 11.2.0-19ubuntu1)
  configuration: --prefix=/usr --extra-version=0ubuntu0.22.04.1 --toolchain=hardened --libdir=/usr/lib/x86_64-linux-gnu --incdir=/usr/include/x86_64-linux-gnu --arch=amd64 --enable-gpl --disable-stripping --enable-gnutls --enable-ladspa --enable-libaom --enable-libass --enable-libbluray --enable-libbs2b --enable-libcaca --enable-libcdio --enable-libcodec2 --enable-libdav1d --enable-libflite --enable-libfontconfig --enable-libfreetype --enable-libfribidi --enable-libgme --enable-libgsm --enable-libjack --enable-libmp3lame --enable-libmysofa --enable-libopenjpeg --enable-libopenmpt --enable-libopus --enable-libpulse --enable-librabbitmq --enable-librubberband --enable-libshine --enable-libsnappy --enable-libsoxr --enable-libspeex --enable-libsrt --enable-libssh --enable-libtheora --enable-libtwolame --enable-libvidstab --enable-libvorbis --enable-libvpx --enable-libwebp --enable-libx265 --enable-libxml2 --enable-libxvid --enable-libzimg --enable-libzmq --enable-libzvbi --enable-lv2 --enable-omx --enable-openal --enable-opencl --enable-opengl --enable-sdl2 --enable-pocketsphinx --enable-librsvg --enable-libmfx --enable-libdc1394 --enable-libdrm --enable-libiec61883 --enable-chromaprint --enable-frei0r --enable-libx264 --enable-shared
  libavutil      56. 70.100 / 56. 70.100
  libavcodec     58.134.100 / 58.134.100
  libavformat    58. 76.100 / 58. 76.100
  libavdevice    58. 13.100 / 58. 13.100
  libavfilter     7.110.100 /  7.110.100
  libswscale      5.  9.100 /  5.  9.100
  libswresample   3.  9.100 /  3.  9.100
  libpostproc    55.  9.100 / 55.  9.100
Input #0, image2, from 'rainbow_camouflage_resized.jpg':
  Duration: 00:00:00.04, start: 0.000000, bitrate: 20668 kb/s
  Stream #0:0: Video: mjpeg (Baseline), yuvj420p(pc, bt470bg/unknown/unknown), 1280x720 [SAR 1:1 DAR 16:9], 25 fps, 25 tbr, 25 tbn, 25 tbc
Stream mapping:
  Stream #0:0 -> #0:0 (mjpeg (native) -> h264 (libx264))
Press [q] to stop, [?] for help
[swscaler @ 0x573d23e40340] deprecated pixel format used, make sure you did set range correctly
[libx264 @ 0x573d237df640] using SAR=1/1
[libx264 @ 0x573d237df640] using cpu capabilities: MMX2 SSE2Fast SSSE3 SSE4.2 AVX FMA3 BMI2 AVX2 AVX512
[libx264 @ 0x573d237df640] profile Main, level 4.0, 4:2:0, 8-bit
[libx264 @ 0x573d237df640] 264 - core 163 r3060 5db6aa6 - H.264/MPEG-4 AVC codec - Copyleft 2003-2021 - http://www.videolan.org/x264.html - options: cabac=1 ref=3 deblock=1:0:0 analyse=0x1:0x111 me=hex subme=7 psy=1 psy_rd=1.00:0.00 mixed_ref=1 me_range=16 chroma_me=1 trellis=1 8x8dct=0 cqm=0 deadzone=21,11 fast_pskip=1 chroma_qp_offset=-2 threads=3 lookahead_threads=1 sliced_threads=0 nr=0 decimate=1 interlaced=0 bluray_compat=0 constrained_intra=0 bframes=3 b_pyramid=2 b_adapt=1 b_bias=0 direct=1 weightb=1 open_gop=0 weightp=2 keyint=250 keyint_min=25 scenecut=40 intra_refresh=0 rc_lookahead=40 rc=crf mbtree=1 crf=23.0 qcomp=0.60 qpmin=0 qpmax=69 qpstep=4 ip_ratio=1.40 aq=1:1.00
Output #0, mp4, to 'final_output_cleaned.mp4':
  Metadata:
    encoder         : Lavf58.76.100
  Stream #0:0: Video: h264 (avc1 / 0x31637661), yuv420p(tv, bt470bg/unknown/unknown, progressive), 1280x720 [SAR 1:1 DAR 16:9], q=2-31, 60 fps, 15360 tbn
    Metadata:
      encoder         : Lavc58.134.100 libx264
    Side data:
      cpb: bitrate max/min/avg: 0/0/0 buffer size: 0 vbv_delay: N/A
frame=    2 fps=0.0 q=0.0 size=       0kB time=00:00:00.00 bitrate=N/A dup=1 drop=0 speed=N/A    frame=   79 fps=0.0 q=31.0 size=       0kB time=00:00:00.48 bitrate=   0.8kbits/s dup=46 drop=0 speed=0.938x    frame=  127 fps=124 q=31.0 size=       0kB time=00:00:01.28 bitrate=   0.3kbits/s dup=74 drop=0 speed=1.25x    frame=  177 fps=114 q=31.0 size=       0kB time=00:00:02.11 bitrate=   0.2kbits/s dup=103 drop=0 speed=1.36x    frame=  228 fps=111 q=31.0 size=       0kB time=00:00:02.96 bitrate=   0.1kbits/s dup=133 drop=0 speed=1.44x    frame=  278 fps=108 q=31.0 size=       0kB time=00:00:03.80 bitrate=   0.1kbits/s dup=162 drop=0 speed=1.47x    frame=  326 fps=105 q=31.0 size=       0kB time=00:00:04.60 bitrate=   0.1kbits/s dup=190 drop=0 speed=1.49x    frame=  379 fps=105 q=31.0 size=       0kB time=00:00:05.48 bitrate=   0.1kbits/s dup=221 drop=0 speed=1.52x    frame=  444 fps=108 q=31.0 size=       0kB time=00:00:06.56 bitrate=   0.1kbits/s dup=259 drop=0 speed=1.59x    frame=  528 fps=114 q=31.0 size=       0kB time=00:00:07.96 bitrate=   0.0kbits/s dup=308 drop=0 speed=1.72x    [mp4 @ 0x573d237f6f80] Starting second pass: moving the moov atom to the beginning of the file
frame=  600 fps=113 q=-1.0 Lsize=     297kB time=00:00:09.95 bitrate= 244.9kbits/s dup=350 drop=0 speed=1.87x    
video:290kB audio:0kB subtitle:0kB other streams:0kB global headers:0kB muxing overhead: 2.717028%
[libx264 @ 0x573d237df640] frame I:3     Avg QP:20.88  size: 90213
[libx264 @ 0x573d237df640] frame P:151   Avg QP:17.70  size:    59
[libx264 @ 0x573d237df640] frame B:446   Avg QP:24.33  size:    36
[libx264 @ 0x573d237df640] consecutive B-frames:  0.8%  0.0%  0.5% 98.7%
[libx264 @ 0x573d237df640] mb I  I16..4:  8.0%  0.0% 92.0%
[libx264 @ 0x573d237df640] mb P  I16..4:  0.0%  0.0%  0.0%  P16..4:  0.1%  0.1%  0.0%  0.0%  0.0%    skip:99.8%
[libx264 @ 0x573d237df640] mb B  I16..4:  0.0%  0.0%  0.0%  B16..8:  0.0%  0.0%  0.0%  direct: 0.0%  skip:100.0%  L0:19.0% L1:81.0% BI: 0.0%
[libx264 @ 0x573d237df640] coded y,uvDC,uvAC intra: 76.8% 100.0% 100.0% inter: 0.0% 0.0% 0.0%
[libx264 @ 0x573d237df640] i16 v,h,dc,p: 72%  1% 19%  8%
[libx264 @ 0x573d237df640] i4 v,h,dc,ddl,ddr,vr,hd,vl,hu: 83%  4%  4%  2%  0%  0%  0%  6%  0%
[libx264 @ 0x573d237df640] i8c dc,h,v,p:  2%  0% 88%  9%
[libx264 @ 0x573d237df640] Weighted P-Frames: Y:0.0% UV:0.0%
[libx264 @ 0x573d237df640] ref P L0: 93.8%  0.3%  5.9%  0.1%
[libx264 @ 0x573d237df640] ref B L0:  0.0% 100.0%
[libx264 @ 0x573d237df640] kb/s:236.71
